<svg xmlns="http://www.w3.org/2000/svg" width="200" height="200" viewBox="0 0 200 200" fill="none">
  <rect width="200" height="200" fill="#F3F4F6"/>
  <path d="M100 70C91.7157 70 85 76.7157 85 85C85 93.2843 91.7157 100 100 100C108.284 100 115 93.2843 115 85C115 76.7157 108.284 70 100 70Z" fill="#D1D5DB"/>
  <path d="M140 140H60L80 100L95 125L115 95L140 140Z" fill="#D1D5DB"/>
  <path d="M78 69C78 67.3431 79.3431 66 81 66H119C120.657 66 122 67.3431 122 69V131C122 132.657 120.657 134 119 134H81C79.3431 134 78 132.657 78 131V69Z" stroke="#9CA3AF" stroke-width="2"/>
</svg> 